<svg width="146" height="34" viewBox="0 0 146 34" fill="none" xmlns="http://www.w3.org/2000/svg">
<circle cx="142" cy="8" r="4" fill="#1576D8"/>
<path d="M15.9531 26.3906C15.9531 26.6927 15.9375 26.9479 15.9062 27.1562C15.8854 27.3542 15.849 27.5156 15.7969 27.6406C15.7448 27.7656 15.6771 27.8594 15.5938 27.9219C15.5208 27.974 15.4375 28 15.3438 28H5.1875C4.84375 28 4.55208 27.901 4.3125 27.7031C4.08333 27.4948 3.96875 27.1615 3.96875 26.7031V9.07812C3.96875 8.61979 4.08333 8.29167 4.3125 8.09375C4.55208 7.88542 4.84375 7.78125 5.1875 7.78125H15.2812C15.375 7.78125 15.4583 7.80729 15.5312 7.85938C15.6042 7.91146 15.6667 8.00521 15.7188 8.14062C15.7708 8.26562 15.8073 8.43229 15.8281 8.64062C15.8594 8.83854 15.875 9.09375 15.875 9.40625C15.875 9.69792 15.8594 9.94792 15.8281 10.1562C15.8073 10.3542 15.7708 10.5156 15.7188 10.6406C15.6667 10.7656 15.6042 10.8594 15.5312 10.9219C15.4583 10.974 15.375 11 15.2812 11H8.0625V15.9375H14.1719C14.2656 15.9375 14.349 15.9688 14.4219 16.0312C14.5052 16.0833 14.5729 16.1719 14.625 16.2969C14.6771 16.4115 14.7135 16.5729 14.7344 16.7812C14.7656 16.9792 14.7812 17.224 14.7812 17.5156C14.7812 17.8177 14.7656 18.0677 14.7344 18.2656C14.7135 18.4635 14.6771 18.625 14.625 18.75C14.5729 18.8646 14.5052 18.9479 14.4219 19C14.349 19.0521 14.2656 19.0781 14.1719 19.0781H8.0625V24.7812H15.3438C15.4375 24.7812 15.5208 24.8125 15.5938 24.875C15.6771 24.9271 15.7448 25.0156 15.7969 25.1406C15.849 25.2656 15.8854 25.4323 15.9062 25.6406C15.9375 25.8385 15.9531 26.0885 15.9531 26.3906ZM32.6719 27.4688C32.6719 27.5729 32.6406 27.6667 32.5781 27.75C32.5156 27.8229 32.4115 27.8854 32.2656 27.9375C32.1198 27.9896 31.9167 28.026 31.6562 28.0469C31.4062 28.0781 31.0938 28.0938 30.7188 28.0938C30.3333 28.0938 30.0104 28.0781 29.75 28.0469C29.5 28.026 29.3021 27.9896 29.1562 27.9375C29.0104 27.8854 28.9062 27.8229 28.8438 27.75C28.7812 27.6667 28.75 27.5729 28.75 27.4688V19.5156C28.75 18.8385 28.6979 18.3073 28.5938 17.9219C28.5 17.5365 28.3594 17.2083 28.1719 16.9375C27.9844 16.6562 27.7396 16.4427 27.4375 16.2969C27.1458 16.1406 26.8021 16.0625 26.4062 16.0625C25.9062 16.0625 25.401 16.2448 24.8906 16.6094C24.3802 16.974 23.849 17.5052 23.2969 18.2031V27.4688C23.2969 27.5729 23.2656 27.6667 23.2031 27.75C23.1406 27.8229 23.0312 27.8854 22.875 27.9375C22.7292 27.9896 22.5312 28.026 22.2812 28.0469C22.0312 28.0781 21.7135 28.0938 21.3281 28.0938C20.9427 28.0938 20.625 28.0781 20.375 28.0469C20.125 28.026 19.9219 27.9896 19.7656 27.9375C19.6198 27.8854 19.5156 27.8229 19.4531 27.75C19.3906 27.6667 19.3594 27.5729 19.3594 27.4688V13.5312C19.3594 13.4271 19.3854 13.3385 19.4375 13.2656C19.4896 13.1823 19.5833 13.1146 19.7188 13.0625C19.8542 13.0104 20.026 12.974 20.2344 12.9531C20.4531 12.9219 20.724 12.9062 21.0469 12.9062C21.3802 12.9062 21.6562 12.9219 21.875 12.9531C22.0938 12.974 22.2604 13.0104 22.375 13.0625C22.5 13.1146 22.5885 13.1823 22.6406 13.2656C22.6927 13.3385 22.7188 13.4271 22.7188 13.5312V15.1406C23.4896 14.3073 24.2708 13.6823 25.0625 13.2656C25.8646 12.849 26.6979 12.6406 27.5625 12.6406C28.5104 12.6406 29.3073 12.7969 29.9531 13.1094C30.6094 13.4219 31.1354 13.849 31.5312 14.3906C31.9375 14.9219 32.2292 15.5469 32.4062 16.2656C32.5833 16.9844 32.6719 17.849 32.6719 18.8594V27.4688ZM50.5781 20.3125C50.5781 21.5521 50.4427 22.6667 50.1719 23.6562C49.901 24.6458 49.5104 25.4896 49 26.1875C48.4896 26.8854 47.8594 27.4219 47.1094 27.7969C46.3698 28.1719 45.526 28.3594 44.5781 28.3594C44.1094 28.3594 43.6719 28.3125 43.2656 28.2188C42.8594 28.1354 42.4688 27.9948 42.0938 27.7969C41.7292 27.599 41.3646 27.349 41 27.0469C40.6458 26.7448 40.2812 26.3802 39.9062 25.9531V27.4688C39.9062 27.5833 39.875 27.6823 39.8125 27.7656C39.7604 27.8385 39.6667 27.901 39.5312 27.9531C39.4062 28.0052 39.2344 28.0417 39.0156 28.0625C38.7969 28.0833 38.5312 28.0938 38.2188 28.0938C37.8958 28.0938 37.625 28.0833 37.4062 28.0625C37.1979 28.0417 37.026 28.0052 36.8906 27.9531C36.7656 27.901 36.6771 27.8385 36.625 27.7656C36.5729 27.6823 36.5469 27.5833 36.5469 27.4688V6.92188C36.5469 6.81771 36.5781 6.72396 36.6406 6.64062C36.7031 6.55729 36.8073 6.48958 36.9531 6.4375C37.1094 6.375 37.3125 6.32812 37.5625 6.29688C37.8125 6.26562 38.1302 6.25 38.5156 6.25C38.901 6.25 39.2188 6.26562 39.4688 6.29688C39.7188 6.32812 39.9167 6.375 40.0625 6.4375C40.2188 6.48958 40.3281 6.55729 40.3906 6.64062C40.4531 6.72396 40.4844 6.81771 40.4844 6.92188V14.625C40.8385 14.2708 41.1927 13.9688 41.5469 13.7188C41.901 13.4688 42.2552 13.2656 42.6094 13.1094C42.9635 12.9427 43.3281 12.8229 43.7031 12.75C44.0781 12.6771 44.474 12.6406 44.8906 12.6406C45.9219 12.6406 46.7969 12.849 47.5156 13.2656C48.2344 13.6719 48.8177 14.224 49.2656 14.9219C49.724 15.6198 50.0573 16.4375 50.2656 17.375C50.474 18.3021 50.5781 19.2812 50.5781 20.3125ZM46.5 20.5938C46.5 20 46.4531 19.4271 46.3594 18.875C46.276 18.3229 46.125 17.8333 45.9062 17.4062C45.6875 16.9792 45.401 16.6406 45.0469 16.3906C44.7031 16.1302 44.2656 16 43.7344 16C43.474 16 43.2188 16.0365 42.9688 16.1094C42.7188 16.1823 42.4583 16.3073 42.1875 16.4844C41.9271 16.6615 41.6562 16.8906 41.375 17.1719C41.0938 17.4531 40.7969 17.8021 40.4844 18.2188V22.8438C41.0365 23.5521 41.5625 24.0938 42.0625 24.4688C42.5729 24.8333 43.1042 25.0156 43.6562 25.0156C44.1667 25.0156 44.599 24.8854 44.9531 24.625C45.3073 24.3646 45.599 24.026 45.8281 23.6094C46.0677 23.1927 46.2396 22.7188 46.3438 22.1875C46.4479 21.6562 46.5 21.125 46.5 20.5938ZM57.6719 27.4688C57.6719 27.5729 57.6406 27.6667 57.5781 27.75C57.5156 27.8229 57.4062 27.8854 57.25 27.9375C57.1042 27.9896 56.9062 28.026 56.6562 28.0469C56.4062 28.0781 56.0885 28.0938 55.7031 28.0938C55.3177 28.0938 55 28.0781 54.75 28.0469C54.5 28.026 54.2969 27.9896 54.1406 27.9375C53.9948 27.8854 53.8906 27.8229 53.8281 27.75C53.7656 27.6667 53.7344 27.5729 53.7344 27.4688V13.5625C53.7344 13.4583 53.7656 13.3698 53.8281 13.2969C53.8906 13.2135 53.9948 13.1458 54.1406 13.0938C54.2969 13.0312 54.5 12.9844 54.75 12.9531C55 12.9219 55.3177 12.9062 55.7031 12.9062C56.0885 12.9062 56.4062 12.9219 56.6562 12.9531C56.9062 12.9844 57.1042 13.0312 57.25 13.0938C57.4062 13.1458 57.5156 13.2135 57.5781 13.2969C57.6406 13.3698 57.6719 13.4583 57.6719 13.5625V27.4688ZM57.9688 8.8125C57.9688 9.60417 57.8073 10.151 57.4844 10.4531C57.1615 10.7552 56.5625 10.9062 55.6875 10.9062C54.8021 10.9062 54.2031 10.7604 53.8906 10.4688C53.5885 10.1771 53.4375 9.65104 53.4375 8.89062C53.4375 8.09896 53.5938 7.55208 53.9062 7.25C54.2292 6.9375 54.8333 6.78125 55.7188 6.78125C56.5938 6.78125 57.1875 6.93229 57.5 7.23438C57.8125 7.52604 57.9688 8.05208 57.9688 8.8125ZM74.5625 27.4844C74.5625 27.5885 74.5312 27.6823 74.4688 27.7656C74.4167 27.8385 74.3125 27.901 74.1562 27.9531C74.0104 27.9948 73.8073 28.026 73.5469 28.0469C73.2865 28.0781 72.9479 28.0938 72.5312 28.0938C72.1042 28.0938 71.7552 28.0833 71.4844 28.0625C71.224 28.0417 71.0052 28.0104 70.8281 27.9688C70.6615 27.9167 70.5312 27.849 70.4375 27.7656C70.3438 27.6823 70.2604 27.5729 70.1875 27.4375L65.5469 20.0938V27.4688C65.5469 27.5729 65.5156 27.6667 65.4531 27.75C65.3906 27.8229 65.2812 27.8854 65.125 27.9375C64.9792 27.9896 64.7812 28.026 64.5312 28.0469C64.2812 28.0781 63.9635 28.0938 63.5781 28.0938C63.1927 28.0938 62.875 28.0781 62.625 28.0469C62.375 28.026 62.1719 27.9896 62.0156 27.9375C61.8698 27.8854 61.7656 27.8229 61.7031 27.75C61.6406 27.6667 61.6094 27.5729 61.6094 27.4688V6.92188C61.6094 6.81771 61.6406 6.72396 61.7031 6.64062C61.7656 6.55729 61.8698 6.48958 62.0156 6.4375C62.1719 6.375 62.375 6.32812 62.625 6.29688C62.875 6.26562 63.1927 6.25 63.5781 6.25C63.9635 6.25 64.2812 6.26562 64.5312 6.29688C64.7812 6.32812 64.9792 6.375 65.125 6.4375C65.2812 6.48958 65.3906 6.55729 65.4531 6.64062C65.5156 6.72396 65.5469 6.81771 65.5469 6.92188V19.1562L69.6719 13.6094C69.7552 13.4844 69.849 13.375 69.9531 13.2812C70.0573 13.1875 70.1927 13.1146 70.3594 13.0625C70.5365 13.0104 70.75 12.974 71 12.9531C71.2604 12.9219 71.5885 12.9062 71.9844 12.9062C72.3698 12.9062 72.6927 12.9219 72.9531 12.9531C73.224 12.974 73.4375 13.0104 73.5938 13.0625C73.7604 13.1146 73.875 13.1823 73.9375 13.2656C74 13.3385 74.0312 13.4323 74.0312 13.5469C74.0312 13.7031 73.9896 13.8698 73.9062 14.0469C73.8333 14.224 73.7188 14.4115 73.5625 14.6094L69.4844 19.2344L74.2031 26.5312C74.3281 26.7396 74.4167 26.9219 74.4688 27.0781C74.5312 27.224 74.5625 27.3594 74.5625 27.4844ZM91.8594 21.9375C91.8594 22.6562 91.7604 23.3073 91.5625 23.8906C91.3646 24.474 91.0885 24.9896 90.7344 25.4375C90.3906 25.8854 89.974 26.2708 89.4844 26.5938C89.0052 26.9167 88.474 27.1823 87.8906 27.3906C87.3073 27.599 86.6823 27.7552 86.0156 27.8594C85.3594 27.9531 84.625 28 83.8125 28H78.4375C78.0938 28 77.8021 27.901 77.5625 27.7031C77.3333 27.4948 77.2188 27.1615 77.2188 26.7031V9.07812C77.2188 8.61979 77.3333 8.29167 77.5625 8.09375C77.8021 7.88542 78.0938 7.78125 78.4375 7.78125H83.5156C84.7552 7.78125 85.8021 7.88542 86.6562 8.09375C87.5208 8.30208 88.2448 8.61979 88.8281 9.04688C89.4219 9.46354 89.875 9.99479 90.1875 10.6406C90.5 11.2865 90.6562 12.0469 90.6562 12.9219C90.6562 13.4115 90.5938 13.875 90.4688 14.3125C90.3438 14.7396 90.1615 15.1302 89.9219 15.4844C89.6823 15.8385 89.3854 16.151 89.0312 16.4219C88.6875 16.6927 88.2917 16.9115 87.8438 17.0781C88.4167 17.1823 88.9427 17.3646 89.4219 17.625C89.9115 17.8854 90.3333 18.224 90.6875 18.6406C91.0521 19.0469 91.3385 19.526 91.5469 20.0781C91.7552 20.6302 91.8594 21.25 91.8594 21.9375ZM86.5469 13.4219C86.5469 13.0156 86.4844 12.651 86.3594 12.3281C86.2344 12.0052 86.0469 11.7396 85.7969 11.5312C85.5469 11.3125 85.2292 11.1458 84.8438 11.0312C84.4688 10.9167 83.9635 10.8594 83.3281 10.8594H81.25V16.1094H83.5469C84.1406 16.1094 84.6146 16.0417 84.9688 15.9062C85.3229 15.7604 85.6146 15.5677 85.8438 15.3281C86.0833 15.0781 86.2604 14.7917 86.375 14.4688C86.4896 14.1354 86.5469 13.7865 86.5469 13.4219ZM87.5938 22.0781C87.5938 21.6094 87.5156 21.1927 87.3594 20.8281C87.2031 20.4531 86.974 20.1406 86.6719 19.8906C86.3698 19.6406 85.9844 19.4479 85.5156 19.3125C85.0469 19.1771 84.4375 19.1094 83.6875 19.1094H81.25V24.8594H84.2188C84.7917 24.8594 85.2708 24.8021 85.6562 24.6875C86.0521 24.5625 86.3906 24.3854 86.6719 24.1562C86.9635 23.9167 87.1875 23.625 87.3438 23.2812C87.5104 22.9271 87.5938 22.526 87.5938 22.0781ZM98.8594 27.4688C98.8594 27.5729 98.8281 27.6667 98.7656 27.75C98.7031 27.8229 98.5938 27.8854 98.4375 27.9375C98.2917 27.9896 98.0938 28.026 97.8438 28.0469C97.5938 28.0781 97.276 28.0938 96.8906 28.0938C96.5052 28.0938 96.1875 28.0781 95.9375 28.0469C95.6875 28.026 95.4844 27.9896 95.3281 27.9375C95.1823 27.8854 95.0781 27.8229 95.0156 27.75C94.9531 27.6667 94.9219 27.5729 94.9219 27.4688V6.92188C94.9219 6.81771 94.9531 6.72396 95.0156 6.64062C95.0781 6.55729 95.1823 6.48958 95.3281 6.4375C95.4844 6.375 95.6875 6.32812 95.9375 6.29688C96.1875 6.26562 96.5052 6.25 96.8906 6.25C97.276 6.25 97.5938 6.26562 97.8438 6.29688C98.0938 6.32812 98.2917 6.375 98.4375 6.4375C98.5938 6.48958 98.7031 6.55729 98.7656 6.64062C98.8281 6.72396 98.8594 6.81771 98.8594 6.92188V27.4688ZM116.891 20.3594C116.891 21.5469 116.734 22.6302 116.422 23.6094C116.109 24.5885 115.635 25.4323 115 26.1406C114.365 26.849 113.568 27.3958 112.609 27.7812C111.651 28.1667 110.531 28.3594 109.25 28.3594C108.01 28.3594 106.932 28.1875 106.016 27.8438C105.099 27.5 104.339 27 103.734 26.3438C103.13 25.6875 102.682 24.8802 102.391 23.9219C102.099 22.9635 101.953 21.8698 101.953 20.6406C101.953 19.4531 102.109 18.3698 102.422 17.3906C102.745 16.401 103.224 15.5573 103.859 14.8594C104.495 14.151 105.286 13.6042 106.234 13.2188C107.193 12.8333 108.312 12.6406 109.594 12.6406C110.844 12.6406 111.927 12.8125 112.844 13.1562C113.76 13.4896 114.516 13.9844 115.109 14.6406C115.714 15.2969 116.161 16.1042 116.453 17.0625C116.745 18.0208 116.891 19.1198 116.891 20.3594ZM112.844 20.5156C112.844 19.8281 112.786 19.1979 112.672 18.625C112.568 18.0417 112.385 17.5365 112.125 17.1094C111.865 16.6823 111.516 16.349 111.078 16.1094C110.651 15.8698 110.109 15.75 109.453 15.75C108.87 15.75 108.359 15.8594 107.922 16.0781C107.484 16.2865 107.125 16.599 106.844 17.0156C106.562 17.4219 106.349 17.9167 106.203 18.5C106.068 19.0729 106 19.7292 106 20.4688C106 21.1562 106.057 21.7917 106.172 22.375C106.286 22.9479 106.469 23.4479 106.719 23.875C106.979 24.3021 107.328 24.6354 107.766 24.875C108.203 25.1042 108.745 25.2188 109.391 25.2188C109.984 25.2188 110.5 25.1146 110.938 24.9062C111.375 24.6875 111.734 24.375 112.016 23.9688C112.297 23.5625 112.505 23.0729 112.641 22.5C112.776 21.9167 112.844 21.2552 112.844 20.5156ZM132.578 14.5C132.578 15 132.521 15.3698 132.406 15.6094C132.292 15.849 132.151 15.9688 131.984 15.9688H130.344C130.573 16.2188 130.734 16.5052 130.828 16.8281C130.932 17.1406 130.984 17.4688 130.984 17.8125C130.984 18.625 130.849 19.349 130.578 19.9844C130.307 20.6094 129.917 21.1406 129.406 21.5781C128.906 22.0052 128.297 22.3333 127.578 22.5625C126.87 22.7812 126.078 22.8906 125.203 22.8906C124.755 22.8906 124.328 22.8385 123.922 22.7344C123.516 22.6198 123.203 22.4896 122.984 22.3438C122.859 22.4792 122.745 22.6406 122.641 22.8281C122.547 23.0156 122.5 23.224 122.5 23.4531C122.5 23.7552 122.63 24.0052 122.891 24.2031C123.161 24.3906 123.536 24.4948 124.016 24.5156L127.406 24.6406C128.198 24.6719 128.901 24.7865 129.516 24.9844C130.141 25.1719 130.661 25.4427 131.078 25.7969C131.505 26.1406 131.828 26.5573 132.047 27.0469C132.276 27.5365 132.391 28.0938 132.391 28.7188C132.391 29.4062 132.24 30.0521 131.938 30.6562C131.635 31.2708 131.182 31.8021 130.578 32.25C129.974 32.6979 129.214 33.0521 128.297 33.3125C127.391 33.5729 126.328 33.7031 125.109 33.7031C123.922 33.7031 122.906 33.6094 122.062 33.4219C121.229 33.2344 120.542 32.974 120 32.6406C119.469 32.3073 119.078 31.9062 118.828 31.4375C118.589 30.9792 118.469 30.474 118.469 29.9219C118.469 29.5781 118.51 29.25 118.594 28.9375C118.688 28.625 118.818 28.3229 118.984 28.0312C119.161 27.75 119.375 27.4792 119.625 27.2188C119.875 26.9583 120.161 26.7083 120.484 26.4688C120.036 26.2292 119.688 25.9062 119.438 25.5C119.198 25.0833 119.078 24.6302 119.078 24.1406C119.078 23.526 119.219 22.9688 119.5 22.4688C119.781 21.9583 120.146 21.5 120.594 21.0938C120.229 20.7292 119.938 20.2917 119.719 19.7812C119.5 19.2708 119.391 18.6354 119.391 17.875C119.391 17.0625 119.531 16.3385 119.812 15.7031C120.104 15.0573 120.505 14.5156 121.016 14.0781C121.526 13.6302 122.135 13.2917 122.844 13.0625C123.552 12.8229 124.333 12.7031 125.188 12.7031C125.625 12.7031 126.042 12.7292 126.438 12.7812C126.844 12.8333 127.219 12.9062 127.562 13H131.984C132.161 13 132.302 13.1146 132.406 13.3438C132.521 13.5729 132.578 13.9583 132.578 14.5ZM127.531 17.7969C127.531 17.0469 127.323 16.4635 126.906 16.0469C126.49 15.6302 125.901 15.4219 125.141 15.4219C124.755 15.4219 124.417 15.4896 124.125 15.625C123.833 15.75 123.589 15.9271 123.391 16.1562C123.203 16.375 123.062 16.6354 122.969 16.9375C122.875 17.2292 122.828 17.5365 122.828 17.8594C122.828 18.5677 123.036 19.1302 123.453 19.5469C123.87 19.9531 124.448 20.1562 125.188 20.1562C125.583 20.1562 125.927 20.0938 126.219 19.9688C126.51 19.8438 126.75 19.6719 126.938 19.4531C127.135 19.2344 127.281 18.9844 127.375 18.7031C127.479 18.4115 127.531 18.1094 127.531 17.7969ZM128.453 28.9219C128.453 28.4531 128.266 28.0938 127.891 27.8438C127.516 27.5938 127 27.4583 126.344 27.4375L123.547 27.3594C123.276 27.5573 123.057 27.75 122.891 27.9375C122.734 28.1146 122.604 28.2865 122.5 28.4531C122.406 28.6198 122.344 28.7812 122.312 28.9375C122.281 29.0938 122.266 29.2552 122.266 29.4219C122.266 29.9427 122.526 30.3385 123.047 30.6094C123.578 30.8802 124.323 31.0156 125.281 31.0156C125.875 31.0156 126.375 30.9531 126.781 30.8281C127.188 30.7135 127.516 30.5573 127.766 30.3594C128.016 30.1615 128.193 29.9375 128.297 29.6875C128.401 29.4479 128.453 29.1927 128.453 28.9219Z" fill="#1A3656"/>
</svg>
